<mxfile host="Electron" modified="2024-07-20T09:36:56.760Z" agent="Mozilla/5.0 (Macintosh; Intel Mac OS X 10_15_7) AppleWebKit/537.36 (KHTML, like Gecko) draw.io/24.6.4 Chrome/124.0.6367.207 Electron/30.0.6 Safari/537.36" etag="0dVxfcJID7FqG9DxfGn0" version="24.6.4" type="device">
  <diagram name="페이지-1" id="MrBo_Xqo4rc-M-ifHi-H">
    <mxGraphModel dx="1114" dy="682" grid="1" gridSize="10" guides="1" tooltips="1" connect="1" arrows="1" fold="1" page="1" pageScale="1" pageWidth="827" pageHeight="1169" math="0" shadow="0">
      <root>
        <mxCell id="0" />
        <mxCell id="1" parent="0" />
        <mxCell id="YRBXo3h6b5i5AJfXXooj-1" value="주문&lt;div&gt;바운디드 컨텍스트&lt;/div&gt;" style="rounded=1;whiteSpace=wrap;html=1;verticalAlign=top;fillColor=#d5e8d4;strokeColor=#82b366;fontStyle=1" vertex="1" parent="1">
          <mxGeometry x="60" y="50" width="140" height="340" as="geometry" />
        </mxCell>
        <mxCell id="YRBXo3h6b5i5AJfXXooj-3" value="인프라스트럭처" style="rounded=0;whiteSpace=wrap;html=1;" vertex="1" parent="1">
          <mxGeometry x="80" y="271" width="100" height="40" as="geometry" />
        </mxCell>
        <mxCell id="YRBXo3h6b5i5AJfXXooj-4" value="표현 영역" style="rounded=0;whiteSpace=wrap;html=1;" vertex="1" parent="1">
          <mxGeometry x="80" y="121" width="100" height="40" as="geometry" />
        </mxCell>
        <mxCell id="YRBXo3h6b5i5AJfXXooj-5" value="응용 서비스" style="rounded=0;whiteSpace=wrap;html=1;" vertex="1" parent="1">
          <mxGeometry x="80" y="171" width="100" height="40" as="geometry" />
        </mxCell>
        <mxCell id="YRBXo3h6b5i5AJfXXooj-6" value="도메인" style="rounded=0;whiteSpace=wrap;html=1;" vertex="1" parent="1">
          <mxGeometry x="80" y="221" width="100" height="40" as="geometry" />
        </mxCell>
        <mxCell id="YRBXo3h6b5i5AJfXXooj-7" value="DBMS" style="rounded=0;whiteSpace=wrap;html=1;" vertex="1" parent="1">
          <mxGeometry x="80" y="321" width="100" height="40" as="geometry" />
        </mxCell>
        <mxCell id="YRBXo3h6b5i5AJfXXooj-8" value="&lt;div&gt;리뷰&lt;/div&gt;&lt;div&gt;바운디드 컨텍스트&lt;/div&gt;" style="rounded=1;whiteSpace=wrap;html=1;verticalAlign=top;fillColor=#d5e8d4;strokeColor=#82b366;fontStyle=1" vertex="1" parent="1">
          <mxGeometry x="270" y="50" width="140" height="340" as="geometry" />
        </mxCell>
        <mxCell id="YRBXo3h6b5i5AJfXXooj-9" value="DBMS" style="rounded=0;whiteSpace=wrap;html=1;" vertex="1" parent="1">
          <mxGeometry x="290" y="271" width="100" height="40" as="geometry" />
        </mxCell>
        <mxCell id="YRBXo3h6b5i5AJfXXooj-10" value="표현 영역" style="rounded=0;whiteSpace=wrap;html=1;" vertex="1" parent="1">
          <mxGeometry x="290" y="121" width="100" height="40" as="geometry" />
        </mxCell>
        <mxCell id="YRBXo3h6b5i5AJfXXooj-11" value="서비스" style="rounded=0;whiteSpace=wrap;html=1;" vertex="1" parent="1">
          <mxGeometry x="290" y="171" width="100" height="40" as="geometry" />
        </mxCell>
        <mxCell id="YRBXo3h6b5i5AJfXXooj-12" value="DAO" style="rounded=0;whiteSpace=wrap;html=1;" vertex="1" parent="1">
          <mxGeometry x="290" y="221" width="100" height="40" as="geometry" />
        </mxCell>
      </root>
    </mxGraphModel>
  </diagram>
</mxfile>
